REM DIRINDEX 1\2,1\3
REM DIRNAME folder01,folder02,folder03
TITLE ""
FILE "Track29.mp3" MP3
  TRACK 01 AUDIO
    TITLE "0:"
    INDEX 01 00:00:00
  TRACK 02 AUDIO
    TITLE "3:cjc140_097"
    INDEX 01 00:00:07
  TRACK 03 AUDIO
    TITLE "2:cjc140_098"
    INDEX 01 00:01:73
  TRACK 04 AUDIO
    TITLE "2:cjc140_099"
    INDEX 01 00:12:09
  TRACK 05 AUDIO
    TITLE "0:"
    INDEX 01 00:20:20
